# xmcd CD database file
#
# Track frame offsets:
#	150
#	27455
#	55575
#	81188
#	100367
#	129378
#	164643
#	204524
#	238402
#	308655
#
# Disc length: 4559 seconds
#
# Revision: 0
# Processed by: cddbd v1.5.2PL0 Copyright (c) Steve Scherf et al.
# Submitted via: CDex 1.70beta2
#
DISCID=8611cd0a
DTITLE=Тріо Наталії Лебедєвої - Jazz Коло: Medium Cool (Live)
DYEAR=2008
DGENRE=Jazz
TTITLE0=Windy Lullaby
TTITLE1=Medium Cool
TTITLE2=Verse
TTITLE3=Just Get More
TTITLE4=Anytime, Anywere
TTITLE5=Orange Colored Snow
TTITLE6=No Meaning
TTITLE7=Ballad of the Silent Sea
TTITLE8=Present Continous
TTITLE9=Al Claps
EXTD=YEAR: 2008
EXTT0=
EXTT1=
EXTT2=
EXTT3=
EXTT4=
EXTT5=
EXTT6=
EXTT7=
EXTT8=
EXTT9=
PLAYORDER=
